<svg aria-hidden="true" style="position: absolute; width: 0; height: 0; overflow: hidden;" version="1.1" xmlns="http://www.w3.org/2000/svg" xmlns:xlink="http://www.w3.org/1999/xlink">
<defs>
<symbol id="icon-logomark" viewBox="0 0 31 32">
<path d="M29.156 15.89c0-7.462-6.049-13.511-13.511-13.511s-13.511 6.049-13.511 13.511c0 7.462 6.049 13.511 13.511 13.511v2.133l-0.403-0.005c-8.32-0.211-15.025-6.916-15.236-15.236l-0.005-0.403c0-8.64 7.004-15.644 15.644-15.644l0.404 0.005c8.454 0.214 15.241 7.134 15.241 15.64l-0.005 0.403c-0.214 8.454-7.134 15.241-15.64 15.241v-2.133c7.462 0 13.511-6.049 13.511-13.511z"></path>
<path d="M20.673 20.918c2.832-2.832 4.642-6.005 5.35-8.76 0.722-2.809 0.231-4.767-0.824-5.822s-3.014-1.547-5.822-0.824c-2.755 0.708-5.927 2.518-8.76 5.35s-4.641 6.005-5.35 8.76c-0.722 2.808-0.231 4.767 0.824 5.822l-1.508 1.508-0.165-0.172c-3.327-3.625-1.387-11.169 4.408-17.14l0.283-0.287c6.11-6.109 13.989-8.136 17.599-4.525s1.584 11.49-4.526 17.599l-0.287 0.283c-6.067 5.888-13.758 7.796-17.312 4.242l1.508-1.508c1.056 1.055 3.014 1.547 5.822 0.824 2.755-0.708 5.927-2.518 8.76-5.35z"></path>
<path d="M20.673 10.861c-2.832-2.832-6.005-4.642-8.76-5.35-2.808-0.722-4.767-0.231-5.822 0.824s-1.547 3.014-0.824 5.822c0.708 2.755 2.518 5.927 5.35 8.76s6.005 4.642 8.76 5.35c2.808 0.722 4.767 0.231 5.822-0.825l1.509 1.509-0.172 0.165c-3.625 3.327-11.169 1.387-17.14-4.408l-0.287-0.283c-6.11-6.11-8.136-13.989-4.525-17.599s11.49-1.584 17.599 4.525l0.283 0.287c5.888 6.067 7.796 13.758 4.242 17.312l-1.509-1.509c1.056-1.055 1.547-3.014 0.825-5.822-0.708-2.755-2.518-5.927-5.35-8.76z"></path>
</symbol>
<symbol id="icon-arrow" viewBox="0 0 32 32">
<path d="M24.473 0.669c0.893 0.893 0.893 2.34 0 3.232l-12.098 12.098 12.098 12.098c0.893 0.893 0.893 2.34 0 3.232s-2.34 0.893-3.232 0l-13.714-13.714c-0.893-0.893-0.893-2.34 0-3.232l13.714-13.714c0.893-0.893 2.34-0.893 3.233 0z"></path>
</symbol>
<symbol id="icon-luggage" viewBox="0 0 32 32">
<path d="M10.839 5.677v-2.065c0-1.71 1.388-3.097 3.097-3.097h4.129c1.708 0 3.097 1.386 3.097 3.097v2.065h6.194c1.094 0 2.147 0.435 2.921 1.209s1.208 1.825 1.208 2.92v16c0 1.095-0.434 2.146-1.208 2.92s-1.827 1.209-2.921 1.209h-1.032v0.516c0 0.57-0.465 1.032-1.032 1.032s-1.032-0.462-1.032-1.032v-0.516h-16.516v0.516c0 0.57-0.465 1.032-1.032 1.032s-1.032-0.462-1.032-1.032v-0.516h-1.032c-1.094 0-2.147-0.435-2.921-1.209s-1.208-1.825-1.208-2.92v-16c0-1.095 0.434-2.146 1.208-2.92s1.827-1.209 2.921-1.209h6.194zM7.742 8.774v18.065c0 0.57 0.465 1.032 1.032 1.032s1.032-0.462 1.032-1.032v-18.065c0-0.57-0.465-1.032-1.032-1.032s-1.032 0.462-1.032 1.032zM22.194 8.774v18.065c0 0.57 0.465 1.032 1.032 1.032s1.032-0.462 1.032-1.032v-18.065c0-0.57-0.465-1.032-1.032-1.032s-1.032 0.462-1.032 1.032zM19.097 5.677v-2.065c0-0.57-0.459-1.032-1.032-1.032h-4.129c-0.573 0-1.032 0.462-1.032 1.032v2.065h6.194z"></path>
</symbol>
<symbol id="icon-way" viewBox="0 0 32 32">
<path d="M29.278 2.033c-0.683-0.675-1.497-1.204-2.391-1.553s-1.851-0.511-2.811-0.476c-1.846 0.067-3.596 0.838-4.892 2.154s-2.040 3.077-2.080 4.924c-0.026 1.565 0.47 3.095 1.409 4.348 0.133 0.198 3.348 4.67 4.335 6.038 0.159 0.216 0.367 0.392 0.606 0.513s0.504 0.185 0.772 0.186c0.268 0.001 0.533-0.060 0.774-0.18s0.449-0.293 0.611-0.508c0 0 4.254-5.813 4.382-5.977 0.938-1.249 1.449-2.767 1.455-4.329 0.003-0.959-0.187-1.909-0.56-2.792s-0.921-1.682-1.61-2.349zM24.276 10.035c-0.546 0-1.079-0.162-1.533-0.465s-0.807-0.734-1.016-1.238c-0.209-0.504-0.263-1.059-0.157-1.594s0.369-1.027 0.755-1.412c0.386-0.386 0.877-0.649 1.413-0.755s1.090-0.052 1.594 0.157 0.935 0.562 1.238 1.016c0.303 0.454 0.465 0.987 0.465 1.533-0.001 0.731-0.292 1.433-0.809 1.95s-1.218 0.808-1.95 0.809zM6.069 28.242c0 0.546-0.162 1.079-0.465 1.533s-0.734 0.807-1.238 1.016c-0.504 0.209-1.059 0.264-1.594 0.157s-1.027-0.369-1.412-0.755c-0.386-0.386-0.649-0.877-0.755-1.412s-0.052-1.090 0.157-1.594c0.209-0.504 0.562-0.935 1.016-1.238s0.987-0.465 1.533-0.465c0.731 0.001 1.433 0.292 1.95 0.809s0.808 1.218 0.809 1.95zM18.207 25.484c-0.001 0.878-0.35 1.719-0.971 2.34s-1.462 0.97-2.34 0.971h-6.676c0.109-0.745 0.023-1.505-0.249-2.207h6.926c0.293 0 0.573-0.116 0.78-0.323s0.323-0.488 0.323-0.78c0-0.293-0.116-0.573-0.323-0.78s-0.488-0.323-0.78-0.323h-4.414c-0.878-0.001-1.719-0.35-2.34-0.971s-0.97-1.462-0.971-2.34v-1.103c0.001-0.878 0.35-1.719 0.971-2.34s1.462-0.97 2.34-0.971h9.062c0.704 0.958 1.196 1.707 1.61 2.207h-10.671c-0.293 0-0.573 0.117-0.78 0.324s-0.323 0.487-0.324 0.78v1.103c0 0.293 0.117 0.573 0.324 0.78s0.487 0.323 0.78 0.324h4.414c0.878 0.001 1.719 0.35 2.34 0.971s0.97 1.462 0.971 2.34z"></path>
</symbol>
</defs>
</svg>
