<svg width="44" height="45" viewBox="0 0 44 45" fill="none" xmlns="http://www.w3.org/2000/svg">
<path d="M41 22.3447C41 11.8513 32.4934 3.34473 22 3.34473C11.5066 3.34473 3 11.8513 3 22.3447C3 32.8381 11.5066 41.3447 22 41.3447V44.3447L21.4326 44.3379C9.73311 44.0417 0.303005 34.6116 0.00683594 22.9121L0 22.3447C1.03081e-06 10.1945 9.84974 0.344727 22 0.344727L22.5674 0.351563C34.4554 0.652507 44 10.3842 44 22.3447L43.9932 22.9121C43.6922 34.8002 33.9606 44.3447 22 44.3447V41.3447C32.4934 41.3447 41 32.8381 41 22.3447Z" fill="white"/>
<path d="M29.0709 29.416C33.0539 25.433 35.598 20.9717 36.5942 17.0976C37.6098 13.1481 36.9192 10.3943 35.4348 8.9099C33.9505 7.42552 31.1966 6.73498 27.2472 7.75049C23.3731 8.74669 18.9118 11.2908 14.9287 15.2739C10.9457 19.2569 8.40157 23.7182 7.40537 27.5923C6.38985 31.5417 7.0804 34.2956 8.56478 35.78L6.44346 37.9013L6.21075 37.6589C1.53232 32.5608 4.26019 21.9528 12.409 13.5565L12.8074 13.1525C21.399 4.56101 32.4793 1.71176 37.5562 6.78858C42.633 11.8654 39.7837 22.9458 31.1922 31.5373L30.7882 31.9358C22.2564 40.2161 11.441 42.8988 6.44346 37.9013L8.56478 35.78C10.0492 37.2643 12.803 37.9549 16.7524 36.9394C20.6265 35.9432 25.0878 33.399 29.0709 29.416Z" fill="white"/>
<path d="M29.0708 15.2739C25.0878 11.2908 20.6264 8.74668 16.7523 7.75048C12.8029 6.73496 10.0491 7.42551 8.56469 8.90989C7.0803 10.3943 6.38976 13.1481 7.40528 17.0976C8.40148 20.9716 10.9456 25.433 14.9286 29.416C18.9117 33.399 23.373 35.9432 27.2471 36.9394C31.1965 37.9549 33.9504 37.2643 35.4347 35.7799L37.5561 37.9013L37.3137 38.134C32.2156 42.8124 21.6076 40.0845 13.2113 31.9357L12.8073 31.5373C4.21579 22.9458 1.36655 11.8654 6.44336 6.78857C11.5202 1.71175 22.6006 4.561 31.1921 13.1525L31.5905 13.5565C39.8709 22.0884 42.5536 32.9037 37.5561 37.9013L35.4347 35.7799C36.9191 34.2956 37.6097 31.5417 36.5942 27.5923C35.598 23.7182 33.0538 19.2569 29.0708 15.2739Z" fill="white"/>
</svg>
